<svg id="SVGbox-gaugeBox" width="320" height="320" xmlns="http://www.w3.org/2000/svg" xmlns:xlink="http://www.w3.org/1999/xlink"><g id="circles"><circle cx="160" cy="160" r="152" style="fill: #0099cc; stroke: none;"></circle><circle cx="160" cy="160" r="144" style="fill: #ffffff; stroke: none;"></circle><circle cx="160" cy="160" r="16" style="fill: #999999; stroke: none;"></circle></g><g id="tickMarks"><g id="minorTickMarks"><path d="M46.565941858404514,219.3018924953423L39.4763132245548,223.00826077630117" style="stroke: #000000; stroke-width: 0.8px;"></path><path d="M44.182137284349494,214.49974932032927L36.943520864621334,217.90598365284987" style="stroke: #000000; stroke-width: 0.8px;"></path><path d="M42.00151659667195,209.6019950658692L34.62661138396395,212.70211975748603" style="stroke: #000000; stroke-width: 0.8px;"></path><path d="M40.027905345037894,204.61722205719235L32.52964942910276,207.40579843576688" style="stroke: #000000; stroke-width: 0.8px;"></path><path d="M38.26476591422035,199.55417527999327L30.656313783859133,202.02631123499287" style="stroke: #000000; stroke-width: 0.8px;"></path><path d="M36.71519144989978,194.42173703875406L29.009890915518525,196.5730956036762" style="stroke: #000000; stroke-width: 0.8px;"></path><path d="M35.3819004322355,189.228911374164L27.593269209250224,191.05571833504925" style="stroke: #000000; stroke-width: 0.8px;"></path><path d="M34.26723190672786,183.9848082669728L26.408933900898347,185.4838587836586" style="stroke: #000000; stroke-width: 0.8px;"></path><path d="M33.37314138073751,178.69862765598873L25.458962717033614,179.86729188448803" style="stroke: #000000; stroke-width: 0.8px;"></path><path d="M32.70119739286102,173.37964329825968L24.745022229914838,174.2158710044009" style="stroke: #000000; stroke-width: 0.8px;"></path><path d="M32.25257876118124,168.03718649975218L24.268364933755066,168.5395106559867" style="stroke: #000000; stroke-width: 0.8px;"></path><path d="M32.028072515219776,162.68062974506972L24.02982704742101,162.84816910413656" style="stroke: #000000; stroke-width: 0.8px;"></path><path d="M32.028072515219776,157.31937025493033L24.02982704742101,157.15183089586347" style="stroke: #000000; stroke-width: 0.8px;"></path><path d="M32.25257876118124,151.96281350024796L24.268364933755066,151.46048934401344" style="stroke: #000000; stroke-width: 0.8px;"></path><path d="M32.701197392861005,146.6203567017404L24.74502222991481,145.7841289955992" style="stroke: #000000; stroke-width: 0.8px;"></path><path d="M33.37314138073749,141.30137234401136L25.458962717033586,140.13270811551206" style="stroke: #000000; stroke-width: 0.8px;"></path><path d="M34.267231906727844,136.01519173302728L26.408933900898347,134.51614121634148" style="stroke: #000000; stroke-width: 0.8px;"></path><path d="M35.38190043223548,130.7710886258361L27.593269209250195,128.94428166495084" style="stroke: #000000; stroke-width: 0.8px;"></path><path d="M36.715191449899734,125.57826296124607L29.00989091551847,123.42690439632395" style="stroke: #000000; stroke-width: 0.8px;"></path><path d="M38.26476591422032,120.4458247200068L30.656313783859076,117.97368876500722" style="stroke: #000000; stroke-width: 0.8px;"></path><path d="M40.027905345037865,115.3827779428077L32.52964942910273,112.5942015642332" style="stroke: #000000; stroke-width: 0.8px;"></path><path d="M42.00151659667189,110.39800493413092L34.62661138396389,107.29788024251411" style="stroke: #000000; stroke-width: 0.8px;"></path><path d="M44.18213728434945,105.5002506796708L36.94352086462129,102.09401634715022" style="stroke: #000000; stroke-width: 0.8px;"></path><path d="M46.56594185840447,100.69810750465778L39.47631322455476,96.99173922369889" style="stroke: #000000; stroke-width: 0.8px;"></path><path d="M49.1487483155918,96.00000000000009L42.22054508531629,92.00000000000009" style="stroke: #000000; stroke-width: 0.8px;"></path><path d="M51.92602553574203,91.4141702426885L45.1714021317259,87.12755588285653" style="stroke: #000000; stroke-width: 0.8px;"></path><path d="M54.8929012308858,86.94866333639285L48.323707557816164,82.38295479491741" style="stroke: #000000; stroke-width: 0.8px;"></path><path d="M58.044170492902836,82.61131329761608L51.67193114870926,77.77452037871709" style="stroke: #000000; stroke-width: 0.8px;"></path><path d="M61.37430492469893,78.40972931216777L55.210198982492614,73.31033739417825" style="stroke: #000000; stroke-width: 0.8px;"></path><path d="M64.87746233889347,74.35128238606623L58.93230373507431,68.99823753519537" style="stroke: #000000; stroke-width: 0.8px;"></path><path d="M68.5474970070011,70.4430924142893L62.831715569938666,64.84578569018238" style="stroke: #000000; stroke-width: 0.8px;"></path><path d="M72.37797044112777,66.6920156900594L66.90159359369825,60.86026667068812" style="stroke: #000000; stroke-width: 0.8px;"></path><path d="M76.36216268926638,63.10463287657528L71.13479785734553,57.04867243136124" style="stroke: #000000; stroke-width: 0.8px;"></path><path d="M80.49308412437615,59.6872374622926L75.52390188214966,53.41768980368589" style="stroke: #000000; stroke-width: 0.8px;"></path><path d="M84.76348770656332,56.44582472000681L80.06120568822354,49.97368876500724" style="stroke: #000000; stroke-width: 0.8px;"></path><path d="M89.16588169685184,53.38608118910733L84.73874930290508,46.72271126342653" style="stroke: #000000; stroke-width: 0.8px;"></path><path d="M93.69254280023922,50.51337469945521L89.54832672525417,43.67046061817116" style="stroke: #000000; stroke-width: 0.8px;"></path><path d="M98.33552971498034,47.83274495438552L94.48150032216661,40.82229151403462" style="stroke: #000000; stroke-width: 0.8px;"></path><path d="M103.08669706432919,45.348894689355205L99.52961563084976,38.1832006074399" style="stroke: #000000; stroke-width: 0.8px;"></path><path d="M107.9377096862975,43.06618142174712L104.68381654169107,35.757817760606315" style="stroke: #000000; stroke-width: 0.8px;"></path><path d="M112.88005725636114,40.988609806303856L109.93506083488371,33.55039791919785" style="stroke: #000000; stroke-width: 0.8px;"></path><path d="M117.90506921746126,39.119824609602446L115.2741360435526,31.564813647702607" style="stroke: #000000; stroke-width: 0.8px;"></path><path d="M123.00392999110746,37.46310431589545L120.69167561555167,29.804548335638913" style="stroke: #000000; stroke-width: 0.8px;"></path><path d="M128.1676944428984,36.021355375535265L126.17817534557956,28.27269008650623" style="stroke: #000000; stroke-width: 0.8px;"></path><path d="M133.38730357532663,34.797107106072914L131.72401004878455,26.971926300202483" style="stroke: #000000; stroke-width: 0.8px;"></path><path d="M138.65360042033873,33.79250725497539L137.31945044660992,25.904538958411365" style="stroke: #000000; stroke-width: 0.8px;"></path><path d="M143.95734610376888,33.00931823174686L142.95468023525444,25.072400621231026" style="stroke: #000000; stroke-width: 0.8px;"></path><path d="M149.28923605346347,32.448914016063455L148.61981330680493,24.476971142067413" style="stroke: #000000; stroke-width: 0.8px;"></path><path d="M154.6399163226622,32.11227774734614L154.30491109282858,24.119295106555285" style="stroke: #000000; stroke-width: 0.8px;"></path><path d="M159.99999999999986,32L159.99999999999986,24" style="stroke: #000000; stroke-width: 0.8px;"></path><path d="M165.36008367733731,32.11227774734613L165.69508890717088,24.119295106555256" style="stroke: #000000; stroke-width: 0.8px;"></path><path d="M170.71076394653625,32.44891401606344L171.3801866931948,24.476971142067413" style="stroke: #000000; stroke-width: 0.8px;"></path><path d="M176.04265389623083,33.00931823174682L177.04531976474524,25.072400621230997" style="stroke: #000000; stroke-width: 0.8px;"></path><path d="M181.34639957966087,33.792507254975334L182.68054955338968,25.90453895841128" style="stroke: #000000; stroke-width: 0.8px;"></path><path d="M186.61269642467298,34.79710710607283L188.27598995121505,26.97192630020237" style="stroke: #000000; stroke-width: 0.8px;"></path><path d="M191.83230555710122,36.021355375535165L193.82182465442003,28.272690086506117" style="stroke: #000000; stroke-width: 0.8px;"></path><path d="M196.99607000889227,37.463104315895364L199.30832438444804,29.804548335638827" style="stroke: #000000; stroke-width: 0.8px;"></path><path d="M202.09493078253848,39.11982460960236L204.72586395644714,31.564813647702522" style="stroke: #000000; stroke-width: 0.8px;"></path><path d="M207.1199427436386,40.98860980630376L210.06493916511602,33.550397919197735" style="stroke: #000000; stroke-width: 0.8px;"></path><path d="M212.06229031370216,43.06618142174696L215.31618345830856,35.757817760606144" style="stroke: #000000; stroke-width: 0.8px;"></path><path d="M216.91330293567057,45.34889468935508L220.47038436914997,38.18320060743977" style="stroke: #000000; stroke-width: 0.8px;"></path><path d="M221.66447028501932,47.83274495438533L225.518499677833,40.82229151403442" style="stroke: #000000; stroke-width: 0.8px;"></path><path d="M226.30745719976053,50.51337469945507L230.4516732747456,43.670460618171006" style="stroke: #000000; stroke-width: 0.8px;"></path><path d="M230.83411830314782,53.38608118910712L235.26125069709457,46.722711263426305" style="stroke: #000000; stroke-width: 0.8px;"></path><path d="M235.23651229343636,56.445824720006584L239.93879431177612,49.973688765007" style="stroke: #000000; stroke-width: 0.8px;"></path><path d="M239.50691587562363,59.687237462292416L244.47609811785009,53.41768980368569" style="stroke: #000000; stroke-width: 0.8px;"></path><path d="M243.63783731073332,63.10463287657501L248.86520214265414,57.048672431360956" style="stroke: #000000; stroke-width: 0.8px;"></path><path d="M247.62202955887204,66.69201569005924L253.09840640630156,60.860266670687935" style="stroke: #000000; stroke-width: 0.8px;"></path><path d="M251.4525029929987,70.44309241428907L257.1682844300611,64.84578569018214" style="stroke: #000000; stroke-width: 0.8px;"></path><path d="M255.12253766110632,74.35128238606599L261.0676962649255,68.99823753519512" style="stroke: #000000; stroke-width: 0.8px;"></path><path d="M258.6256950753008,78.40972931216747L264.7898010175071,73.31033739417794" style="stroke: #000000; stroke-width: 0.8px;"></path><path d="M261.955829507097,82.61131329761587L268.3280688512906,77.77452037871686" style="stroke: #000000; stroke-width: 0.8px;"></path><path d="M265.10709876911403,86.94866333639258L271.67629244218364,82.38295479491713" style="stroke: #000000; stroke-width: 0.8px;"></path><path d="M268.07397446425784,91.41417024268827L274.82859786827396,87.12755588285629" style="stroke: #000000; stroke-width: 0.8px;"></path><path d="M270.851251684408,95.99999999999974L277.77945491468347,91.99999999999973" style="stroke: #000000; stroke-width: 0.8px;"></path><path d="M273.43405814159536,100.69810750465744L280.52368677544507,96.99173922369853" style="stroke: #000000; stroke-width: 0.8px;"></path><path d="M275.8178627156504,105.50025067967044L283.05647913537854,102.09401634714985" style="stroke: #000000; stroke-width: 0.8px;"></path><path d="M277.99848340332795,110.39800493413057L285.373388616036,107.29788024251373" style="stroke: #000000; stroke-width: 0.8px;"></path><path d="M279.972094654962,115.38277794280741L287.47035057089715,112.59420156423286" style="stroke: #000000; stroke-width: 0.8px;"></path><path d="M281.73523408577955,120.44582472000648L289.3436862161408,117.9736887650069" style="stroke: #000000; stroke-width: 0.8px;"></path><path d="M283.28480855010014,125.57826296124564L290.99010908448145,123.4269043963235" style="stroke: #000000; stroke-width: 0.8px;"></path><path d="M284.6180995677645,130.77108862583583L292.40673079074975,128.94428166495058" style="stroke: #000000; stroke-width: 0.8px;"></path><path d="M285.73276809327206,136.0151917330269L293.59106609910157,134.51614121634108" style="stroke: #000000; stroke-width: 0.8px;"></path><path d="M286.62685861926246,141.3013723440111L294.5410372829664,140.13270811551178" style="stroke: #000000; stroke-width: 0.8px;"></path><path d="M287.29880260713895,146.62035670174015L295.25497777008513,145.7841289955989" style="stroke: #000000; stroke-width: 0.8px;"></path><path d="M287.74742123881873,151.96281350024756L295.7316350662449,151.46048934401304" style="stroke: #000000; stroke-width: 0.8px;"></path><path d="M287.9719274847802,157.31937025493L295.970172952579,157.15183089586313" style="stroke: #000000; stroke-width: 0.8px;"></path><path d="M287.9719274847802,162.68062974506938L295.970172952579,162.84816910413622" style="stroke: #000000; stroke-width: 0.8px;"></path><path d="M287.7474212388188,168.03718649975193L295.73163506624496,168.53951065598642" style="stroke: #000000; stroke-width: 0.8px;"></path><path d="M287.298802607139,173.37964329825934L295.25497777008525,174.21587100440055" style="stroke: #000000; stroke-width: 0.8px;"></path><path d="M286.6268586192625,178.6986276559884L294.5410372829665,179.86729188448768" style="stroke: #000000; stroke-width: 0.8px;"></path><path d="M285.7327680932722,183.98480826697235L293.59106609910174,185.48385878365815" style="stroke: #000000; stroke-width: 0.8px;"></path><path d="M284.6180995677646,189.22891137416366L292.40673079074986,191.05571833504888" style="stroke: #000000; stroke-width: 0.8px;"></path><path d="M283.28480855010037,194.42173703875363L290.9901090844816,196.57309560367577" style="stroke: #000000; stroke-width: 0.8px;"></path><path d="M281.7352340857797,199.55417527999302L289.343686216141,202.0263112349926" style="stroke: #000000; stroke-width: 0.8px;"></path><path d="M279.97209465496223,204.617222057192L287.4703505708974,207.4057984357665" style="stroke: #000000; stroke-width: 0.8px;"></path><path d="M277.99848340332824,209.60199506586883L285.3733886160362,212.70211975748566" style="stroke: #000000; stroke-width: 0.8px;"></path><path d="M275.8178627156506,214.4997493203291L283.05647913537877,217.90598365284967" style="stroke: #000000; stroke-width: 0.8px;"></path><path d="M273.43405814159564,219.301892495342L280.52368677544536,223.0082607763009" style="stroke: #000000; stroke-width: 0.8px;"></path><path d="M270.8512516844082,223.9999999999998L277.77945491468375,227.9999999999998" style="stroke: #000000; stroke-width: 0.8px;"></path></g><g id="majorTickMarks"><path d="M63.00515477614286,216L42.22054508531633,228" style="stroke: #0099cc; stroke-width: 2.4000000000000004px;"></path><path d="M48.613547718753395,171.70718788597722L24.745022229914838,174.2158710044009" style="stroke: #0099cc; stroke-width: 2.4000000000000004px;"></path><path d="M53.48167017494279,125.3900966300059L30.656313783859105,117.97368876500717" style="stroke: #0099cc; stroke-width: 2.4000000000000004px;"></path><path d="M76.76777954653184,85.05737208780788L58.932303735074385,68.99823753519527" style="stroke: #0099cc; stroke-width: 2.4000000000000004px;"></path><path d="M114.4454959755104,57.682908744028694L104.68381654169119,35.75781776060627" style="stroke: #0099cc; stroke-width: 2.4000000000000004px;"></path><path d="M159.99999999999997,48L159.99999999999997,24" style="stroke: #0099cc; stroke-width: 2.4000000000000004px;"></path><path d="M205.55450402448957,57.68290874402868L215.31618345830879,35.75781776060626" style="stroke: #0099cc; stroke-width: 2.4000000000000004px;"></path><path d="M243.23222045346816,85.05737208780789L261.06769626492564,68.9982375351953" style="stroke: #0099cc; stroke-width: 2.4000000000000004px;"></path><path d="M266.5183298250572,125.39009663000587L289.3436862161409,117.97368876500713" style="stroke: #0099cc; stroke-width: 2.4000000000000004px;"></path><path d="M271.38645228124665,171.70718788597713L295.2549777700852,174.2158710044008" style="stroke: #0099cc; stroke-width: 2.4000000000000004px;"></path><path d="M256.9948452238571,216L277.77945491468364,228" style="stroke: #0099cc; stroke-width: 2.4000000000000004px;"></path></g></g><g id="tickLabels"><text x="100.41745221963062" y="215.99999999999997" font-size="14.4" text-anchor="middle" font-family="&quot;Helvetica Neue&quot;, Helvetica, Arial, sans-serif" style="fill: #000000; font-weight: bold;">0</text><text x="77.25577830535967" y="177.401978014923" font-size="14.4" text-anchor="middle" font-family="&quot;Helvetica Neue&quot;, Helvetica, Arial, sans-serif" style="fill: #000000; font-weight: bold;">10</text><text x="80.87209784424323" y="137.03994134900515" font-size="14.4" text-anchor="middle" font-family="&quot;Helvetica Neue&quot;, Helvetica, Arial, sans-serif" style="fill: #000000; font-weight: bold;">20</text><text x="98.1703505202808" y="101.89285281937545" font-size="14.4" text-anchor="middle" font-family="&quot;Helvetica Neue&quot;, Helvetica, Arial, sans-serif" style="fill: #000000; font-weight: bold;">30</text><text x="126.15951129609343" y="78.03796333408215" font-size="14.4" text-anchor="middle" font-family="&quot;Helvetica Neue&quot;, Helvetica, Arial, sans-serif" style="fill: #000000; font-weight: bold;">40</text><text x="159.99999999999997" y="69.60000000000001" font-size="14.4" text-anchor="middle" font-family="&quot;Helvetica Neue&quot;, Helvetica, Arial, sans-serif" style="fill: #000000; font-weight: bold;">50</text><text x="193.84048870390654" y="78.03796333408214" font-size="14.4" text-anchor="middle" font-family="&quot;Helvetica Neue&quot;, Helvetica, Arial, sans-serif" style="fill: #000000; font-weight: bold;">60</text><text x="221.8296494797192" y="101.89285281937545" font-size="14.4" text-anchor="middle" font-family="&quot;Helvetica Neue&quot;, Helvetica, Arial, sans-serif" style="fill: #000000; font-weight: bold;">70</text><text x="239.12790215575677" y="137.03994134900512" font-size="14.4" text-anchor="middle" font-family="&quot;Helvetica Neue&quot;, Helvetica, Arial, sans-serif" style="fill: #000000; font-weight: bold;">80</text><text x="242.74422169464032" y="177.40197801492292" font-size="14.4" text-anchor="middle" font-family="&quot;Helvetica Neue&quot;, Helvetica, Arial, sans-serif" style="fill: #000000; font-weight: bold;">90</text><text x="236.21023553303058" y="216" font-size="14.4" text-anchor="middle" font-family="&quot;Helvetica Neue&quot;, Helvetica, Arial, sans-serif" style="fill: #000000; font-weight: bold;">100</text></g><g id="unitLabels"><text x="160" y="264.8" font-size="21.6" text-anchor="middle" font-family="&quot;Helvetica Neue&quot;, Helvetica, Arial, sans-serif" style="fill: #000000; font-weight: bold;">30 %</text></g><g id="needle"><path d="M180.56920350996927,135.4865778201927L93.15008859259991,239.66862208437374" transform="rotate(92,160,160)" style="stroke: #0099cc; stroke-width: 4px;"></path></g></svg>